<?xml version="1.0" encoding="UTF-8" standalone="no"?>
<!DOCTYPE svg PUBLIC "-//W3C//DTD SVG 1.1//EN" "http://www.w3.org/Graphics/SVG/1.1/DTD/svg11.dtd">
<svg width="100%" height="100%" viewBox="0 0 464 93" version="1.1" xmlns="http://www.w3.org/2000/svg" xmlns:xlink="http://www.w3.org/1999/xlink" xml:space="preserve" xmlns:serif="http://www.serif.com/" style="fill-rule:evenodd;clip-rule:evenodd;stroke-linejoin:round;stroke-miterlimit:2;">
    <g id="Mesa-de-trabajo1" serif:id="Mesa de trabajo1" transform="matrix(0.579034,0,0,0.154348,0,0)">
        <rect x="0" y="0" width="800" height="600" style="fill:none;"/>
        <clipPath id="_clip1">
            <rect x="0" y="0" width="800" height="600"/>
        </clipPath>
        <g clip-path="url(#_clip1)">
            <g transform="matrix(0.940558,0,0,3.20936,-14473,-3623.23)">
                <path d="M16093.5,1287.14L16081.7,1315.53L16059.1,1315.53L16059.1,1283.13L16108.8,1165.98L16140.5,1165.98L16203.7,1315.53L16167.2,1315.53L16155.4,1287.14L16093.5,1287.14ZM15931.6,1199.62L15931.6,1315.53L15900.1,1315.53L15832.5,1230.13L15832.6,1315.53L15795.6,1315.53L15795.6,1165.98L15827.1,1165.98L15894.7,1251.37L15894.6,1165.98L16067.4,1165.98L16067.4,1199.62L16017.8,1199.62L16017.8,1315.53L15982.4,1315.53L15982.4,1199.62L15931.6,1199.62ZM15591.6,1222.89L15623.9,1165.98L15659.6,1165.98L15659.6,1315.53L15624.1,1315.53L15624.1,1229.01L15597.3,1277.55L15591.6,1288.38L15586.3,1277.55L15559.2,1229.21L15559.2,1315.53L15523.5,1315.53L15523.5,1165.98L15559.4,1165.98L15591.6,1222.89ZM15702.8,1282.08L15787.1,1282.08L15787.1,1315.53L15668.1,1315.53L15668.1,1165.98L15787.1,1165.98L15787.1,1199.23L15702.8,1199.23L15702.8,1223.34L15783.8,1223.34L15783.8,1256.2L15702.8,1256.2L15702.8,1282.08ZM15443.5,1165.98L15387.7,1165.98L15387.7,1315.53L15443.5,1315.53C15450.2,1315.53 15456.5,1314.81 15462.4,1313.39C15468.9,1311.84 15475,1309.46 15480.6,1306.26C15486.1,1303.14 15490.9,1299.37 15495.2,1294.95C15499.4,1290.52 15503.1,1285.44 15506.1,1279.71C15509.2,1273.83 15511.5,1267.49 15513,1260.68C15514.3,1254.44 15515,1247.8 15515,1240.75C15515,1233.71 15514.3,1227.07 15513,1220.82C15511.5,1214.01 15509.2,1207.67 15506.1,1201.8C15503.1,1196.06 15499.4,1190.98 15495.2,1186.55C15490.9,1182.14 15486.1,1178.37 15480.6,1175.24C15475,1172.04 15468.9,1169.67 15462.4,1168.12C15456.5,1166.69 15450.2,1165.98 15443.5,1165.98ZM15421.3,1281.88L15443.5,1281.88C15447.1,1281.88 15450.6,1281.48 15453.8,1280.65C15457.2,1279.8 15460.4,1278.5 15463.3,1276.73C15466.1,1275.04 15468.6,1273 15470.8,1270.61C15473,1268.24 15474.9,1265.52 15476.4,1262.47C15478.1,1259.25 15479.3,1255.79 15480.1,1252.08C15480.8,1248.52 15481.2,1244.75 15481.2,1240.75C15481.2,1236.76 15480.8,1232.98 15480.1,1229.42C15479.3,1225.72 15478.1,1222.26 15476.4,1219.04C15474.9,1215.98 15473,1213.27 15470.8,1210.89C15468.6,1208.51 15466.1,1206.47 15463.3,1204.77C15460.4,1203.01 15457.2,1201.71 15453.8,1200.85C15450.6,1200.03 15447.1,1199.62 15443.5,1199.62L15421.3,1199.62L15421.3,1281.88ZM16107,1253.89L16141.9,1253.89L16124.5,1211.09L16107,1253.89Z" style="fill:rgb(63,64,77);"/>
            </g>
            <g transform="matrix(-2.32695e-17,0.475213,-0.126673,-8.72953e-17,767.164,115.848)">
                <path d="M256.219,0L6.219,0L6.219,250L256.219,0Z" style="fill:rgb(60,226,173);"/>
            </g>
            <g transform="matrix(-2.32695e-17,0.475213,-0.126673,-8.72953e-17,767.164,-2.95552)">
                <path d="M256.219,0L6.219,0L6.219,250L256.219,0Z" style="fill:rgb(60,226,173);"/>
            </g>
            <g transform="matrix(7.83745e-18,-0.480173,0.127995,2.94021e-17,667.915,601.768)">
                <circle cx="131.219" cy="902.754" r="125" style="fill:rgb(105,69,237);"/>
            </g>
        </g>
    </g>
</svg>
